<svg width="120" height="120" viewBox="0 0 120 120" fill="none" xmlns="http://www.w3.org/2000/svg">
<circle cx="60" cy="60" r="60" fill="#1F1F1F"/>
<path d="M95.921 53.4543H61.2252V67.8335H81.1918C79.3335 76.971 71.5543 82.221 61.2252 82.221C58.3349 82.2259 55.4721 81.6602 52.8009 80.5563C50.1298 79.4524 47.7028 77.832 45.6593 75.7881C43.6157 73.7442 41.9958 71.3169 40.8924 68.6456C39.789 65.9742 39.2238 63.1113 39.2293 60.221C39.2244 57.3311 39.79 54.4686 40.8936 51.7977C41.9973 49.1268 43.6173 46.7001 45.6608 44.6566C47.7042 42.6131 50.131 40.9931 52.8019 39.8894C55.4728 38.7858 58.3352 38.2202 61.2252 38.2252C66.471 38.2252 71.2127 40.0877 74.9335 43.1335L85.7668 32.3043C79.1668 26.5502 70.7043 23.0002 61.2252 23.0002C56.3327 22.9859 51.4857 23.9389 46.9629 25.8046C42.4401 27.6703 38.3307 30.4117 34.8712 33.8712C31.4117 37.3307 28.6703 41.4401 26.8046 45.9629C24.939 50.4857 23.9859 55.3327 24.0002 60.2252C23.9853 65.1178 24.938 69.9651 26.8035 74.4881C28.669 79.0112 31.4104 83.1207 34.87 86.5803C38.3296 90.04 42.4392 92.7814 46.9622 94.6468C51.4853 96.5123 56.3325 97.465 61.2252 97.4502C79.8377 97.4502 96.7627 83.9127 96.7627 60.2252C96.7627 58.0252 96.4252 55.6543 95.921 53.4543Z" fill="#B6B6B6"/>
</svg>
