<svg width="120" height="120" viewBox="0 0 120 120" fill="none" xmlns="http://www.w3.org/2000/svg">
<circle cx="60" cy="60" r="60" fill="#1F1F1F"/>
<path d="M85.8455 77.6548C84.8941 79.8623 83.7186 81.9673 82.3374 83.9371C80.4922 86.5601 78.9769 88.3726 77.8156 89.3815C76.0117 91.0299 74.0738 91.878 72.0019 91.9259C70.5175 91.9259 68.7239 91.5052 66.6348 90.6503C64.5389 89.7987 62.6147 89.3815 60.8521 89.3815C59.0069 89.3815 57.0278 89.7987 54.9078 90.6503C52.7912 91.5052 51.0801 91.9532 49.771 91.9943C47.7884 92.0797 45.8058 91.2111 43.8301 89.3815C42.5691 88.2871 40.992 86.4062 39.0988 83.7456C37.0715 80.9105 35.4051 77.6104 34.0994 73.8588C32.7009 69.7994 32 65.8734 32 62.0706C32 57.7171 32.9449 53.9587 34.8381 50.8124C36.2701 48.3415 38.3172 46.2792 40.7824 44.8243C43.2133 43.3731 45.9882 42.5917 48.8226 42.5603C50.4032 42.5603 52.4751 43.0459 55.0418 44.0035C57.6085 44.9611 59.2578 45.4467 59.9759 45.4467C60.5188 45.4467 62.3433 44.8756 65.4494 43.7436C68.3803 42.6937 70.8543 42.2594 72.8815 42.4304C78.3791 42.8715 82.5057 45.026 85.2511 48.911C80.3376 51.876 77.9084 56.0243 77.9565 61.349C77.9977 65.4973 79.513 68.9479 82.4817 71.6872C83.7941 72.9373 85.3255 73.9375 87 74.6385C86.6358 75.6884 86.251 76.6904 85.8455 77.6548ZM73.2457 28.303C73.2457 31.5518 72.05 34.5886 69.6757 37.3963C66.8032 40.7341 63.3329 42.6663 59.5704 42.362C59.5212 41.9534 59.4971 41.5423 59.4983 41.1308C59.4983 38.0085 60.8589 34.6707 63.2882 31.9383C64.4977 30.5566 66.037 29.4042 67.9027 28.4876C69.765 27.5848 71.5243 27.0855 73.1804 27C73.2251 27.4377 73.2457 27.8721 73.2457 28.303Z" fill="#B6B6B6"/>
</svg>
