<svg width="24" height="25" viewBox="0 0 24 25" fill="none" xmlns="http://www.w3.org/2000/svg">
<path d="M21.8597 19.2125V20.2125H23.6559L22.7098 18.6857L21.8597 19.2125ZM18.8808 14.4053H17.8808V14.6901L18.0308 14.9321L18.8808 14.4053ZM4.97896 14.4053L5.82898 14.9321L5.97896 14.6901V14.4053H4.97896ZM2 19.2125L1.14998 18.6857L0.203863 20.2125H2V19.2125ZM5.97896 7.95091C5.97896 4.66431 8.64328 2 11.9299 2V0C7.53871 0 3.97896 3.55974 3.97896 7.95091H5.97896ZM11.9299 2C15.2165 2 17.8808 4.66431 17.8808 7.95091H19.8808C19.8808 3.55974 16.321 0 11.9299 0V2ZM17.8808 7.95091V14.4053H19.8808V7.95091H17.8808ZM18.0308 14.9321L21.0097 19.7392L22.7098 18.6857L19.7308 13.8786L18.0308 14.9321ZM3.97896 7.95091V14.4053H5.97896V7.95091H3.97896ZM4.12894 13.8786L1.14998 18.6857L2.85002 19.7392L5.82898 14.9321L4.12894 13.8786ZM13.9088 20.521C13.9088 21.614 13.0228 22.5 11.9299 22.5V24.5C14.1274 24.5 15.9088 22.7186 15.9088 20.521H13.9088ZM11.9299 22.5C10.8369 22.5 9.95091 21.614 9.95091 20.521H7.95091C7.95091 22.7186 9.73235 24.5 11.9299 24.5V22.5ZM14.6068 20.2125H21.8597V18.2125H14.6068V20.2125ZM13.7087 19.6523C13.8366 19.9134 13.9088 20.2074 13.9088 20.521H15.9088C15.9088 19.8958 15.7639 19.3015 15.5049 18.7727L13.7087 19.6523ZM2 20.2125H9.25295V18.2125H2V20.2125ZM9.25295 20.2125H14.6068V18.2125H9.25295V20.2125ZM9.95091 20.521C9.95091 20.2074 10.0232 19.9134 10.151 19.6523L8.35487 18.7727C8.09585 19.3015 7.95091 19.8958 7.95091 20.521H9.95091Z" fill="white"/>
</svg>
